<svg id="visual" viewBox="0 0 900 600" width="900" height="600" xmlns="http://www.w3.org/2000/svg" xmlns:xlink="http://www.w3.org/1999/xlink" version="1.1"><g transform="translate(433.1882509324177 294.6439860203536)"><path d="M167.2 -228.7C221.6 -190.7 273.9 -148.3 280.4 -98.2C286.9 -48.1 247.6 9.8 224.3 70.2C201 130.6 193.6 193.5 158.9 233.1C124.2 272.6 62.1 288.8 -5.7 296.6C-73.5 304.5 -146.9 303.9 -177.2 262.9C-207.5 221.9 -194.6 140.5 -207 73.9C-219.4 7.4 -257.1 -44.2 -245.2 -79.3C-233.3 -114.4 -171.8 -133.1 -122.6 -172.8C-73.5 -212.5 -36.7 -273.2 9.8 -286.8C56.4 -300.3 112.9 -266.7 167.2 -228.7" fill="#BB004B"></path></g></svg>